<svg width="116" height="26" viewBox="0 0 116 26" fill="none" xmlns="http://www.w3.org/2000/svg">
<path d="M26.4375 25H22.3438V11.6562L15.1406 24.3281C14.9635 24.651 14.7135 24.8958 14.3906 25.0625C14.0781 25.2292 13.7396 25.3125 13.375 25.3125C13.0208 25.3125 12.6875 25.2292 12.375 25.0625C12.0729 24.8958 11.8333 24.651 11.6562 24.3281L4.42188 11.6562V25H0.359375V4.32812C0.359375 3.85938 0.494792 3.44271 0.765625 3.07812C1.04688 2.71354 1.41146 2.46875 1.85938 2.34375C2.07812 2.29167 2.29688 2.27604 2.51562 2.29688C2.73438 2.30729 2.94271 2.35417 3.14062 2.4375C3.34896 2.51042 3.53646 2.61979 3.70312 2.76562C3.86979 2.90104 4.01042 3.06771 4.125 3.26562L13.375 19.3438L22.625 3.26562C22.8646 2.86979 23.1927 2.58854 23.6094 2.42188C24.0365 2.25521 24.4792 2.22917 24.9375 2.34375C25.375 2.46875 25.7344 2.71354 26.0156 3.07812C26.2969 3.44271 26.4375 3.85938 26.4375 4.32812V25ZM48.9688 19.2969C48.9688 19.9948 48.8802 20.625 48.7031 21.1875C48.526 21.7396 48.2917 22.2292 48 22.6562C47.7083 23.0729 47.3698 23.4323 46.9844 23.7344C46.599 24.026 46.1927 24.2656 45.7656 24.4531C45.349 24.6406 44.9219 24.7812 44.4844 24.875C44.0573 24.9583 43.651 25 43.2656 25H35.9375C35.375 25 34.7604 24.901 34.0938 24.7031C33.4271 24.5052 32.8073 24.1823 32.2344 23.7344C31.6719 23.276 31.1979 22.6875 30.8125 21.9688C30.4375 21.2396 30.25 20.349 30.25 19.2969V13.7969C30.25 12.7552 30.4375 11.875 30.8125 11.1562C31.1979 10.4271 31.6719 9.83854 32.2344 9.39062C32.8073 8.93229 33.4271 8.60417 34.0938 8.40625C34.7604 8.20833 35.375 8.10938 35.9375 8.10938H43.2656C44.3073 8.10938 45.1927 8.29688 45.9219 8.67188C46.651 9.04688 47.2396 9.52083 47.6875 10.0938C48.1354 10.6562 48.4583 11.2708 48.6562 11.9375C48.8646 12.6042 48.9688 13.224 48.9688 13.7969V19.2969ZM44.9062 13.8281C44.9062 13.2656 44.7656 12.849 44.4844 12.5781C44.2031 12.3073 43.7969 12.1719 43.2656 12.1719H35.9688C35.4271 12.1719 35.0156 12.3125 34.7344 12.5938C34.4531 12.8646 34.3125 13.2656 34.3125 13.7969V19.2969C34.3125 19.8281 34.4531 20.2344 34.7344 20.5156C35.0156 20.7969 35.4271 20.9375 35.9688 20.9375H43.2656C43.8177 20.9375 44.2292 20.7969 44.5 20.5156C44.7708 20.2344 44.9062 19.8281 44.9062 19.2969V13.8281ZM70.9688 19.2969C70.9688 19.9948 70.8802 20.625 70.7031 21.1875C70.526 21.7396 70.2917 22.2292 70 22.6562C69.7083 23.0729 69.3698 23.4323 68.9844 23.7344C68.599 24.026 68.1927 24.2656 67.7656 24.4531C67.349 24.6406 66.9219 24.7812 66.4844 24.875C66.0573 24.9583 65.651 25 65.2656 25H57.9375C57.2396 25 56.6146 24.9115 56.0625 24.7344C55.5104 24.5573 55.0208 24.3229 54.5938 24.0312C54.1771 23.7292 53.8177 23.3854 53.5156 23C53.224 22.6146 52.9844 22.2135 52.7969 21.7969C52.6094 21.3698 52.4688 20.9427 52.375 20.5156C52.2917 20.0781 52.25 19.6719 52.25 19.2969V13.7969C52.25 12.7552 52.4375 11.875 52.8125 11.1562C53.1979 10.4271 53.6719 9.83854 54.2344 9.39062C54.8073 8.93229 55.4271 8.60417 56.0938 8.40625C56.7604 8.20833 57.375 8.10938 57.9375 8.10938H65.2656V12.1719H57.9688C57.4271 12.1719 57.0156 12.3125 56.7344 12.5938C56.4531 12.8646 56.3125 13.2656 56.3125 13.7969V19.2656C56.3125 19.8177 56.4479 20.2344 56.7188 20.5156C57 20.7969 57.4062 20.9375 57.9375 20.9375H65.2656C65.8177 20.9375 66.2292 20.7969 66.5 20.5156C66.7708 20.2344 66.9062 19.8281 66.9062 19.2969V0.96875H70.9688V19.2969ZM93.375 19.2969C93.375 19.9948 93.2865 20.625 93.1094 21.1875C92.9323 21.7396 92.6979 22.2292 92.4062 22.6562C92.1146 23.0729 91.776 23.4323 91.3906 23.7344C91.0052 24.026 90.599 24.2656 90.1719 24.4531C89.7552 24.6406 89.3281 24.7812 88.8906 24.875C88.4635 24.9583 88.0573 25 87.6719 25H80.3438C79.6458 25 79.0208 24.9115 78.4688 24.7344C77.9167 24.5573 77.4271 24.3229 77 24.0312C76.5833 23.7292 76.224 23.3854 75.9219 23C75.6302 22.6146 75.3906 22.2135 75.2031 21.7969C75.0156 21.3698 74.875 20.9427 74.7812 20.5156C74.6979 20.0781 74.6562 19.6719 74.6562 19.2969V13.7969C74.6562 12.7552 74.8438 11.875 75.2188 11.1562C75.6042 10.4271 76.0781 9.83854 76.6406 9.39062C77.2135 8.93229 77.8333 8.60417 78.5 8.40625C79.1667 8.20833 79.7812 8.10938 80.3438 8.10938H87.6719V12.1719H80.375C79.8333 12.1719 79.4219 12.3125 79.1406 12.5938C78.8594 12.8646 78.7188 13.2656 78.7188 13.7969V19.2656C78.7188 19.8177 78.8542 20.2344 79.125 20.5156C79.4062 20.7969 79.8125 20.9375 80.3438 20.9375H87.6719C88.224 20.9375 88.6354 20.7969 88.9062 20.5156C89.1771 20.2344 89.3125 19.8281 89.3125 19.2969V0.96875H93.375V19.2969ZM115.422 13.7031C115.422 14.2656 115.323 14.875 115.125 15.5312C114.927 16.1771 114.604 16.7812 114.156 17.3438C113.719 17.8958 113.141 18.3594 112.422 18.7344C111.714 19.1094 110.849 19.2969 109.828 19.2969H102.5V15.4375H109.828C110.38 15.4375 110.807 15.2708 111.109 14.9375C111.411 14.5938 111.562 14.1719 111.562 13.6719C111.562 13.1406 111.391 12.724 111.047 12.4219C110.714 12.1198 110.307 11.9688 109.828 11.9688H102.5C101.948 11.9688 101.521 12.1406 101.219 12.4844C100.917 12.8177 100.766 13.2344 100.766 13.7344V19.4062C100.766 19.9479 100.932 20.3698 101.266 20.6719C101.609 20.974 102.031 21.125 102.531 21.125H109.828V25H102.5C101.938 25 101.328 24.901 100.672 24.7031C100.026 24.5052 99.4219 24.1875 98.8594 23.75C98.3073 23.3021 97.8438 22.724 97.4688 22.0156C97.0938 21.2969 96.9062 20.4271 96.9062 19.4062V13.7031C96.9062 13.1406 97.0052 12.5365 97.2031 11.8906C97.401 11.2344 97.7188 10.6302 98.1562 10.0781C98.6042 9.51562 99.1823 9.04688 99.8906 8.67188C100.609 8.29688 101.479 8.10938 102.5 8.10938H109.828C110.391 8.10938 110.995 8.20833 111.641 8.40625C112.297 8.60417 112.901 8.92708 113.453 9.375C114.016 9.8125 114.484 10.3906 114.859 11.1094C115.234 11.8177 115.422 12.6823 115.422 13.7031Z" fill="#36194B"/>
</svg>
